<?xml version="1.0" encoding="UTF-8" standalone="no"?>
<!-- Created with Inkscape (http://www.inkscape.org/) -->

<svg
   width="1000"
   height="1000"
   viewBox="0 0 264.58333 264.58333"
   version="1.1"
   id="svg13334"
   inkscape:version="1.2.2 (b0a8486541, 2022-12-01)"
   sodipodi:docname="icono.svg"
   xmlns:inkscape="http://www.inkscape.org/namespaces/inkscape"
   xmlns:sodipodi="http://sodipodi.sourceforge.net/DTD/sodipodi-0.dtd"
   xmlns="http://www.w3.org/2000/svg"
   xmlns:svg="http://www.w3.org/2000/svg">
  <sodipodi:namedview
     id="namedview13336"
     pagecolor="#ffffff"
     bordercolor="#000000"
     borderopacity="0.25"
     inkscape:showpageshadow="2"
     inkscape:pageopacity="0.0"
     inkscape:pagecheckerboard="0"
     inkscape:deskcolor="#d1d1d1"
     inkscape:document-units="mm"
     showgrid="false"
     showguides="true"
     inkscape:zoom="0.49798681"
     inkscape:cx="564.27197"
     inkscape:cy="642.5873"
     inkscape:window-width="1366"
     inkscape:window-height="739"
     inkscape:window-x="0"
     inkscape:window-y="0"
     inkscape:window-maximized="1"
     inkscape:current-layer="layer1">
    <inkscape:grid
       type="xygrid"
       id="grid14907" />
    <sodipodi:guide
       position="0,264.58333"
       orientation="0,1000"
       id="guide14909"
       inkscape:locked="false" />
    <sodipodi:guide
       position="264.58333,264.58333"
       orientation="1000,0"
       id="guide14911"
       inkscape:locked="false" />
    <sodipodi:guide
       position="264.58333,0"
       orientation="0,-1000"
       id="guide14913"
       inkscape:locked="false" />
    <sodipodi:guide
       position="0,0"
       orientation="-1000,0"
       id="guide14915"
       inkscape:locked="false" />
    <sodipodi:guide
       position="154.87567,199.49836"
       orientation="0,-1"
       id="guide18465"
       inkscape:locked="false" />
    <sodipodi:guide
       position="86.868514,152.47779"
       orientation="1,0"
       id="guide18467"
       inkscape:locked="false" />
    <sodipodi:guide
       position="155.40697,180.90265"
       orientation="0,-1"
       id="guide18469"
       inkscape:locked="false" />
    <sodipodi:guide
       position="107.72227,160.18172"
       orientation="1,0"
       id="guide18479"
       inkscape:locked="false" />
    <sodipodi:guide
       position="180.64401,120.06813"
       orientation="1,0"
       id="guide18495"
       inkscape:locked="false" />
    <sodipodi:guide
       position="169.22093,111.83288"
       orientation="0,-1"
       id="guide18497"
       inkscape:locked="false" />
    <sodipodi:guide
       position="102.40921,48.463048"
       orientation="0,-1"
       id="guide18517"
       inkscape:locked="false" />
  </sodipodi:namedview>
  <defs
     id="defs13331" />
  <g
     inkscape:label="Capa 1"
     inkscape:groupmode="layer"
     id="layer1">
    <circle
       style="fill:#44475a;stroke:none;stroke-width:5.07184;fill-opacity:1;opacity:1"
       id="path14969"
       cx="132.29166"
       cy="132.29166"
       r="132.29166" />
    <text
       xml:space="preserve"
       style="font-size:215.524px;font-family:Rubik;-inkscape-font-specification:Rubik;fill:#ffffff;fill-opacity:1;stroke:none;stroke-width:308.861;opacity:1"
       x="68.128487"
       y="216.12029"
       id="text15757"><tspan
         sodipodi:role="line"
         id="tspan15755"
         style="stroke-width:308.861;fill:#ffffff;fill-opacity:1"
         x="68.128487"
         y="216.12029">F</tspan></text>
    <circle
       style="fill:#282a36;fill-opacity:1;stroke:none;stroke-width:4.74592;opacity:1"
       id="circle14971"
       cx="132.29166"
       cy="132.29166"
       r="123.79076" />
    <g
       aria-label="{  }"
       id="text15753"
       style="font-size:191.263px;font-family:Rubik;-inkscape-font-specification:Rubik;opacity:1;stroke-width:274.093">
      <path
         d="m 74.982922,221.52807 q -11.284517,0 -18.743774,-3.634 -7.267994,-3.634 -11.47578,-10.90199 -4.207786,-7.07673 -5.929153,-17.21367 -1.721367,-10.3282 -1.721367,-23.71661 0,-9.94568 -2.677682,-15.30104 -2.677682,-5.54663 -8.033046,-8.98937 l -1.338841,-0.57378 q -4.781575,-3.06021 -4.781575,-7.268 v -3.82526 q 0,-4.20778 4.781575,-7.26799 l 1.530104,-0.76505 q 5.355364,-3.634 7.841783,-8.98937 2.677682,-5.35536 2.677682,-15.109773 0,-13.38841 1.721367,-23.525349 1.721367,-10.328202 5.929153,-17.404933 4.207786,-7.076731 11.47578,-10.710728 7.459257,-3.633997 18.743774,-3.633997 h 0.956315 q 1.91263,0 3.060208,1.147578 1.147578,1.147578 1.147578,3.060208 v 7.076731 q 0,1.91263 -1.147578,3.060208 -1.147578,1.147578 -2.868945,1.147578 h -0.956315 q -9.180624,0.191263 -13.770936,4.781575 -4.399049,4.399049 -5.929153,13.770936 -1.338841,9.371887 -1.338841,24.864186 0,11.47578 -3.633997,18.93504 -3.633997,7.45926 -10.710728,11.47578 4.781575,2.48642 7.841783,6.88547 3.251471,4.20779 4.781575,10.13694 1.721367,5.92915 1.721367,13.38841 0,15.10978 1.338841,24.86419 1.530104,9.56315 5.929153,13.9622 4.590312,4.39905 13.770936,4.78157 H 76.1305 q 1.721367,0 2.868945,1.14758 1.147578,1.14758 1.147578,3.06021 v 7.07673 q 0,1.91263 -1.147578,3.06021 -1.147578,1.14758 -3.060208,1.14758 z"
         style="fill:#f8f8f2"
         id="path44855" />
      <path
         d="m 188.97599,42.69716 q 11.28452,0 18.55251,3.633997 7.45926,3.633997 11.66704,10.710728 4.20779,7.076731 5.92916,17.404933 1.91263,10.328202 1.91263,23.716612 0,9.94568 2.48642,15.30104 2.67768,5.35536 8.03304,8.7981 l 1.53011,0.76505 q 4.59031,3.06021 4.59031,7.26799 v 3.82526 q 0,4.20779 -4.59031,7.07674 l -1.72137,0.95631 q -5.35537,3.44273 -7.84178,8.7981 -2.48642,5.35536 -2.48642,15.30104 0,13.38841 -1.91263,23.71661 -1.72137,10.13694 -5.92916,17.02241 -4.20778,7.07673 -11.66704,10.71073 -7.26799,3.82526 -18.36125,3.82526 h -1.14758 q -1.91263,0 -3.0602,-1.14758 -1.14758,-1.14758 -1.14758,-3.06021 v -7.07673 q 0,-1.91263 1.14758,-3.06021 1.14757,-1.14758 3.0602,-1.14758 h 0.76506 q 9.37188,-0.38252 13.77093,-4.78157 4.59031,-4.39905 5.92916,-13.9622 1.5301,-9.56315 1.5301,-24.67293 0,-11.66704 3.44273,-19.1263 3.634,-7.45926 10.71073,-11.28452 -4.59031,-2.86894 -7.84178,-7.07673 -3.06021,-4.20778 -4.78158,-9.94567 -1.5301,-5.92916 -1.5301,-13.38841 0,-15.492306 -1.5301,-24.864193 -1.33885,-9.56315 -5.73789,-13.962199 -4.39905,-4.590312 -13.77094,-4.781575 h -0.95632 q -1.91263,0 -3.0602,-1.147578 -1.14758,-1.147578 -1.14758,-3.060208 v -7.076731 q 0,-1.91263 1.14758,-3.060208 1.14757,-1.147578 3.0602,-1.147578 z"
         style="fill:#f8f8f2"
         id="path44857" />
    </g>
    <rect
       style="fill:#ff79c6;fill-opacity:1;stroke:none;stroke-width:2.59995;opacity:1"
       id="rect15811"
       width="23.99431"
       height="7"
       x="86.868515"
       y="65.084969"
       ry="3.5" />
    <rect
       style="fill:#ff5555;fill-opacity:1;stroke:none;stroke-width:2.10808;opacity:1"
       id="rect18471"
       width="15.774311"
       height="7"
       x="164.86967"
       y="65.084969"
       ry="3.5" />
    <rect
       style="fill:#bd93f9;fill-opacity:1;stroke:none;stroke-width:2.58086;opacity:1"
       id="rect18473"
       width="23.643112"
       height="7"
       x="123.39581"
       y="76.680679"
       ry="3.5" />
    <rect
       style="fill:#11ff77;fill-opacity:1;stroke:none;stroke-width:2.80326;opacity:1"
       id="rect18475"
       width="27.893559"
       height="7"
       x="149.56261"
       y="76.680679"
       ry="3.5" />
    <rect
       style="fill:#6272a4;fill-opacity:1;stroke:none;stroke-width:2.14539;opacity:1"
       id="rect18477"
       width="16.337654"
       height="7"
       x="86.879074"
       y="87.306801"
       ry="3.5" />
    <rect
       style="fill:#bd93f9;fill-opacity:1;stroke:none;stroke-width:2.14539;opacity:1"
       id="rect18481"
       width="16.337654"
       height="7"
       x="91.384621"
       y="97.401611"
       ry="3.5" />
    <rect
       style="fill:#ffb86c;fill-opacity:1;stroke:none;stroke-width:2.14539;opacity:1"
       id="rect18483"
       width="16.337654"
       height="7"
       x="88.728088"
       y="107.49642"
       ry="3.5" />
    <rect
       style="fill:#bd93f9;fill-opacity:1;stroke:none;stroke-width:2.14539;opacity:1"
       id="rect18485"
       width="16.337654"
       height="7"
       x="91.384621"
       y="118.12254"
       ry="3.5" />
    <rect
       style="fill:#ffb86c;fill-opacity:1;stroke:none;stroke-width:2.14539;opacity:1"
       id="rect18487"
       width="16.337654"
       height="7"
       x="86.879074"
       y="127.81888"
       ry="3.5" />
    <rect
       style="fill:#ff79c6;fill-opacity:1;stroke:none;stroke-width:2.67233;opacity:1"
       id="rect18489"
       width="25.348747"
       height="7"
       x="86.879074"
       y="136.18695"
       ry="3.5" />
    <rect
       style="fill:#8be9fd;fill-opacity:1;stroke:none;stroke-width:3.60036;opacity:1"
       id="rect18491"
       width="46.011696"
       height="7"
       x="114.24133"
       y="136.18695"
       ry="3.5" />
    <rect
       style="fill:#11ff77;fill-opacity:1;stroke:none;stroke-width:2.50672;opacity:1"
       id="rect18499"
       width="22.304281"
       height="7"
       x="155.01907"
       y="145.75046"
       ry="3.5" />
    <rect
       style="fill:#bd93f9;fill-opacity:1;stroke:none;stroke-width:2.63055;opacity:1"
       id="rect18501"
       width="24.562332"
       height="7"
       x="126.32856"
       y="145.75046"
       ry="3.5" />
    <rect
       style="fill:#11ff77;fill-opacity:1;stroke:none;stroke-width:2.63055;opacity:1"
       id="rect18503"
       width="24.562332"
       height="7"
       x="95.441101"
       y="145.75046"
       ry="3.5" />
    <rect
       style="fill:#6272a4;fill-opacity:1;stroke:none;stroke-width:2.40026;opacity:1"
       id="rect18505"
       width="20.449993"
       height="7"
       x="87.272278"
       y="157.04071"
       ry="3.5" />
    <rect
       style="fill:#11ff77;fill-opacity:1;stroke:none;stroke-width:1.94332;opacity:1"
       id="rect18507"
       width="13.404908"
       height="7"
       x="87.272278"
       y="169.92488"
       ry="3.5" />
    <rect
       style="fill:#bd93f9;fill-opacity:1;stroke:none;stroke-width:1.94332;opacity:1"
       id="rect18509"
       width="13.404908"
       height="7"
       x="94.317368"
       y="180.0197"
       ry="3.5" />
    <rect
       style="fill:#ffb86c;fill-opacity:1;stroke:none;stroke-width:1.94332;opacity:1"
       id="rect18511"
       width="13.404908"
       height="7"
       x="90.996704"
       y="190.11452"
       ry="3.5" />
    <rect
       style="fill:#bd93f9;fill-opacity:1;stroke:none;stroke-width:1.94332;opacity:1"
       id="rect18513"
       width="13.404908"
       height="7"
       x="86.879074"
       y="199.01389"
       ry="3.5" />
    <rect
       style="fill:#ffb86c;fill-opacity:1;stroke:none;stroke-width:2.42385;opacity:1"
       id="rect18515"
       width="20.85376"
       height="7"
       x="86.868515"
       y="208.97588"
       ry="3.5" />
    <rect
       style="fill:#8be9fd;fill-opacity:1;stroke:none;stroke-width:3.71814;opacity:1"
       id="rect19245"
       width="49.071617"
       height="7"
       x="113.21545"
       y="65.084969"
       ry="3.5" />
    <rect
       style="fill:#11ff77;fill-opacity:1;stroke:none;stroke-width:2.58086;opacity:1"
       id="rect19247"
       width="23.643112"
       height="7"
       x="89.392235"
       y="76.680679"
       ry="3.5" />
    <rect
       style="fill:#ff5555;fill-opacity:1;stroke:none;stroke-width:2.10808;opacity:1"
       id="rect36395"
       width="15.774338"
       height="7"
       x="164.86967"
       y="136.18695"
       ry="3.5" />
  </g>
</svg>
